<?xml version="1.0" standalone="no"?>
<!DOCTYPE svg PUBLIC "-//W3C//DTD SVG 20010904//EN"
 "http://www.w3.org/TR/2001/REC-SVG-20010904/DTD/svg10.dtd">
<svg version="1.0" xmlns="http://www.w3.org/2000/svg"
 width="750.000000pt" height="850.000000pt" viewBox="0 0 750.000000 850.000000"
 preserveAspectRatio="xMidYMid meet">
<metadata>
Created by potrace 1.16, written by Peter Selinger 2001-2019
</metadata>
<g transform="translate(0.000000,850.000000) scale(0.100000,-0.100000)"
fill="#000000" stroke="none">
<path d="M0 4250 l0 -4250 3750 0 3750 0 0 4250 0 4250 -3750 0 -3750 0 0
-4250z m3058 1992 c29 -14 73 -47 98 -74 65 -69 87 -125 89 -223 0 -44 2 -128
3 -187 l2 -108 353 0 354 0 39 -29 c39 -28 169 -160 255 -258 l46 -51 259 -4
c255 -3 260 -3 304 -28 24 -14 58 -45 75 -68 l30 -44 3 -706 c2 -506 0 -719
-9 -748 -14 -53 -60 -109 -110 -135 -39 -19 -58 -20 -1270 -19 -1198 0 -1231
1 -1268 20 -48 24 -118 102 -126 141 -4 16 -11 29 -16 29 -5 0 -9 273 -9 680
l0 681 24 47 c50 98 121 141 248 150 l78 5 0 53 0 54 125 0 125 0 0 -55 0 -56
58 3 57 3 0 478 c0 384 3 479 13 486 20 12 110 -7 170 -37z m390 -2802 c23
-10 42 -22 42 -26 0 -6 -21 -37 -56 -83 -2 -2 -21 4 -44 13 -52 21 -110 21
-110 1 0 -8 12 -17 28 -21 147 -32 192 -64 192 -136 0 -53 -19 -82 -73 -109
-34 -18 -53 -21 -121 -17 -83 5 -176 38 -176 62 0 6 14 26 31 45 l31 33 40
-18 c46 -21 129 -25 135 -7 3 7 -13 17 -39 24 -136 36 -162 52 -177 105 -17
62 28 132 99 153 46 14 145 4 198 -19z m369 0 c49 -21 48 -21 29 -59 -25 -47
-38 -53 -79 -36 -41 17 -103 20 -112 5 -7 -11 19 -23 90 -41 101 -24 143 -71
130 -141 -15 -78 -82 -113 -204 -106 -70 4 -149 31 -165 56 -2 4 10 25 28 46
l32 39 33 -18 c18 -9 58 -19 88 -22 50 -6 55 -4 51 13 -2 14 -20 23 -68 35
-79 19 -102 31 -129 65 -27 35 -27 83 2 125 45 67 170 85 274 39z m1340 -3
l43 -23 -31 -42 c-17 -23 -32 -42 -34 -42 -1 0 -19 7 -38 15 -48 20 -107 20
-107 0 0 -8 12 -17 28 -21 68 -15 151 -46 166 -63 25 -27 30 -81 13 -123 -37
-89 -245 -107 -344 -30 l-22 17 33 38 33 39 34 -18 c39 -20 140 -25 146 -7 4
11 -16 19 -111 44 -94 24 -134 87 -103 162 27 62 91 90 191 81 33 -3 79 -15
103 -27z m-2805 -16 c25 -28 29 -39 24 -70 -3 -22 -16 -45 -33 -59 -18 -15
-23 -26 -16 -29 7 -2 23 -13 37 -24 36 -28 36 -95 2 -132 -34 -36 -84 -47
-223 -47 l-123 0 0 201 0 201 151 -4 151 -3 30 -34z m208 -106 l0 -145 90 0
90 0 0 -55 0 -55 -160 0 -160 0 0 200 0 200 70 0 70 0 0 -145z m558 93 l-3
-53 -102 -3 c-95 -2 -103 -4 -103 -22 0 -19 7 -20 95 -20 l95 0 0 -45 0 -45
-95 0 c-95 0 -95 0 -95 -25 l0 -25 105 0 105 0 0 -55 0 -55 -170 0 -170 0 0
200 0 200 171 0 170 0 -3 -52z m978 -19 l42 -71 42 71 42 71 69 0 69 0 0 -200
0 -200 -65 0 -64 0 -3 97 -3 97 -44 -67 -44 -68 -46 68 -46 68 -3 -97 -3 -98
-64 0 -65 0 0 200 0 200 73 0 72 0 41 -71z m615 1 c50 -115 121 -284 130 -307
8 -23 7 -23 -62 -23 -69 0 -71 1 -82 30 -11 29 -13 30 -82 30 -69 0 -71 -1
-82 -30 -11 -29 -13 -30 -81 -30 l-70 0 75 178 c41 97 79 187 84 200 8 21 14
23 76 20 l67 -3 27 -65z m-1837 -492 c23 -38 43 -68 46 -68 3 0 23 31 46 68
l40 67 67 3 67 3 0 -201 0 -200 -65 0 -65 0 0 97 0 98 -46 -69 -46 -68 -40 61
c-22 33 -45 61 -49 61 -5 0 -9 -41 -9 -90 l0 -91 -62 3 -63 3 -2 185 c-1 102
0 191 2 198 3 9 24 12 72 10 l67 -3 40 -67z m660 50 c3 -13 4 -36 3 -53 l-3
-30 -107 -3 c-99 -2 -107 -4 -107 -22 0 -19 7 -20 100 -20 l100 0 0 -50 0 -50
-101 0 c-98 0 -100 0 -97 -22 3 -22 8 -23 111 -26 l107 -3 0 -50 0 -49 -172 2
-173 3 -3 185 c-1 101 0 190 2 197 4 10 45 13 170 13 164 0 166 0 170 -22z
m311 -2 c80 -34 117 -89 117 -176 0 -68 -18 -107 -68 -148 -48 -40 -101 -52
-223 -52 l-101 0 0 193 c0 107 3 197 8 201 13 15 224 0 267 -18z m285 -176 l0
-200 -65 0 -65 0 0 200 0 200 65 0 65 0 0 -200z m349 128 c16 -40 54 -130 85
-200 l54 -128 -69 0 c-64 0 -70 2 -81 25 -10 23 -16 25 -83 25 -67 0 -73 -2
-83 -25 -11 -23 -17 -25 -77 -25 -36 0 -65 4 -65 9 0 4 33 86 73 182 40 96 76
182 80 192 5 14 19 17 71 17 l64 0 31 -72z"/>
<path d="M3250 5392 c0 -82 3 -189 6 -239 l7 -89 51 26 c93 48 169 64 306 64
93 1 142 -4 190 -18 143 -41 278 -129 369 -238 59 -71 132 -215 152 -298 19
-79 16 -270 -5 -349 -61 -225 -224 -409 -437 -491 -103 -40 -160 -50 -274 -50
-329 0 -611 221 -700 550 -15 55 -19 131 -25 495 -4 237 -8 431 -9 433 0 1
-112 2 -247 2 -207 0 -251 -3 -280 -16 -68 -32 -64 11 -64 -733 0 -672 0 -674
22 -708 40 -67 -33 -63 1277 -63 l1189 0 31 26 c17 14 35 42 41 62 8 25 10
252 8 705 l-3 669 -33 29 -32 29 -273 0 c-313 0 -271 -13 -392 125 -43 50
-108 120 -144 158 l-65 67 -333 0 -333 0 0 -148z m1150 -382 l0 -61 -62 3 -63
3 -3 44 c-5 66 -1 71 68 71 l60 0 0 -60z"/>
<path d="M3503 4771 c-94 -35 -167 -103 -211 -200 -22 -47 -26 -70 -26 -137 1
-69 6 -90 34 -148 38 -81 91 -135 168 -173 51 -25 68 -28 157 -28 95 0 103 2
163 34 74 40 124 93 161 171 22 46 26 69 26 140 0 74 -4 93 -31 150 -38 79
-97 140 -171 177 -75 36 -194 43 -270 14z m247 -57 c247 -114 256 -451 16
-574 -61 -31 -78 -35 -145 -35 -63 0 -86 5 -132 28 -66 32 -132 99 -162 165
-31 67 -31 189 1 253 35 71 87 125 154 158 83 42 185 44 268 5z"/>
<path d="M3533 4716 c-149 -47 -238 -195 -211 -349 18 -100 102 -199 195 -231
171 -58 350 35 398 207 64 228 -157 443 -382 373z m189 -21 c24 -9 60 -28 78
-44 l33 -28 -137 -48 c-75 -26 -139 -46 -142 -43 -4 5 13 135 22 166 5 17 90
15 146 -3z m-198 -131 c-13 -75 -25 -138 -28 -141 -8 -8 -136 102 -136 118 0
28 62 100 114 129 28 17 56 30 62 30 6 0 2 -48 -12 -136z m357 -11 c27 -55 42
-209 19 -201 -15 5 -218 171 -219 179 -1 5 149 65 170 68 3 1 16 -20 30 -46z
m-406 -160 c79 -68 94 -84 79 -90 -11 -3 -52 -19 -92 -34 l-72 -27 -24 47
c-28 55 -41 126 -32 176 8 42 0 46 141 -72z m299 20 c12 -10 44 -37 70 -60 47
-41 47 -42 32 -70 -20 -40 -97 -109 -142 -128 -20 -8 -38 -14 -39 -13 -4 5 49
288 53 288 2 0 14 -8 26 -17z m-89 -140 c-4 -27 -11 -70 -17 -97 l-10 -48 -55
6 c-63 7 -144 39 -169 67 -16 17 -15 19 7 28 45 19 234 90 243 90 4 1 5 -20 1
-46z"/>
<path d="M3707 2773 c1 -43 2 -82 3 -87 0 -13 68 0 96 19 19 12 24 24 24 60 0
54 -33 85 -89 85 l-36 0 2 -77z"/>
</g>
</svg>
